<?xml version="1.0" encoding="UTF-8"?>
<svg width="138px" height="36px" viewBox="0 0 138 36" version="1.1" xmlns="http://www.w3.org/2000/svg" xmlns:xlink="http://www.w3.org/1999/xlink">
    <!-- Generator: Sketch 44.1 (41455) - http://www.bohemiancoding.com/sketch -->
    <title>logo-horizontal</title>
    <desc>Created with Sketch.</desc>
    <defs></defs>
    <g id="FE-Engineering-Exercise" stroke="none" stroke-width="1" fill="none" fill-rule="evenodd">
        <g id="restaurant-list-desktop" transform="translate(-77.000000, -12.000000)" fill-rule="nonzero" fill="#00CCBC">
            <g id="nav-bar">
                <path d="M127.183959,38.9668734 L130.316457,38.9668734 L129.797534,36.5910273 L129.797534,22.4267586 L126.801045,22.4267586 L126.801045,28.8871329 C125.899681,27.8660009 124.659951,27.2669429 123.196065,27.2669429 C120.199102,27.2669429 117.878873,29.6863401 117.878873,33.23899 C117.878873,36.7911765 120.199102,39.211037 123.196065,39.211037 C124.683172,39.211037 125.966976,38.589277 126.868813,37.523204 L127.183959,38.9664101 L127.183959,38.9668734 Z M186.418043,30.4419963 C187.026534,30.4419963 187.589531,30.5967414 188.107507,30.9516357 L189.52732,27.8219866 C188.873334,27.421688 188.107507,27.2447041 187.364427,27.2447041 C186.012382,27.2447041 184.885914,27.8423721 184.165582,28.9543126 L183.849489,27.5097166 L180.762484,27.5097166 L181.258187,29.7521299 L181.258187,38.9650202 L184.253254,38.9650202 L184.253254,31.6618877 C184.658915,30.9066948 185.425216,30.4410697 186.416621,30.4410697 L186.416621,30.4419963 L186.417569,30.4419963 L186.418043,30.4419963 Z M195.204205,36.1249389 C193.470667,36.1249389 192.185442,34.9930761 192.185442,33.2385267 C192.185442,31.4626651 193.470667,30.3530411 195.204205,30.3530411 C196.962385,30.3530411 198.224388,31.4626651 198.224388,33.2385267 C198.224388,34.9930761 196.962385,36.1249389 195.204678,36.1249389 L195.204205,36.1249389 Z M120.784846,33.2385267 C120.784846,31.4626651 122.069123,30.3530411 123.803608,30.3530411 C125.561789,30.3530411 126.823318,31.4626651 126.823318,33.2385267 C126.823318,34.9930761 125.561789,36.1249389 123.804556,36.1249389 C122.070071,36.1249389 120.784846,34.9930761 120.784846,33.2385267 Z M208.475858,36.1249389 C206.741373,36.1249389 205.457096,34.9930761 205.457096,33.2385267 C205.457096,31.4626651 206.741373,30.3530411 208.475858,30.3530411 C210.233091,30.3530411 211.49462,31.4626651 211.49462,33.2385267 C211.49462,34.9930761 210.233091,36.1249389 208.475858,36.1249389 Z M137.593238,30.1751306 C139.14764,30.1751306 140.161792,30.8853826 140.476938,32.1951559 L134.709538,32.1951559 C135.047431,30.8853826 136.06111,30.1751306 137.592764,30.1751306 L137.593238,30.1751306 Z M173.439261,30.1751306 C174.994611,30.1751306 176.008763,30.8853826 176.323909,32.1951559 L170.556509,32.1951559 C170.894402,30.8853826 171.908081,30.1751306 173.439735,30.1751306 L173.439261,30.1751306 Z M158.817932,38.9668734 L163.639421,38.9668734 L166.77192,27.5111065 L163.504833,27.5111065 L161.207351,36.7911765 L158.908921,27.5111065 L155.686381,27.5111065 L158.81888,38.9664101 L158.817932,38.9668734 Z M151.089522,38.9668734 L154.084589,38.9668734 L154.084589,27.5106432 L151.089522,27.5106432 L151.089522,38.9668734 Z M138.05245,39.1790687 C139.720589,39.1790687 141.365032,38.7342926 142.739351,37.8688322 L141.59061,35.338241 C140.508689,35.8932846 139.314928,36.2264034 138.097945,36.2264034 C136.521269,36.2264034 135.417075,35.6268822 134.943646,34.5167949 L143.369642,34.5167949 C143.459683,34.0951842 143.505652,33.6735734 143.505652,33.1625441 C143.505652,29.6103575 141.004866,27.2349746 137.647263,27.2349746 C134.268335,27.2349746 131.789822,29.6325963 131.789822,33.2070217 C131.789822,36.8477002 134.245587,39.1790687 138.053398,39.1790687 L138.05245,39.1790687 Z M214.401541,33.2385267 C214.401541,29.6863401 211.878008,27.2664796 208.475858,27.2664796 C205.073235,27.2664796 202.550175,29.6863401 202.550175,33.2385267 C202.550175,36.7911765 205.073235,39.2105737 208.475384,39.2105737 C211.878008,39.2105737 214.401067,36.7911765 214.401067,33.2385267 L214.401541,33.2385267 Z M173.84587,39.2105737 C175.512113,39.2105737 177.15703,38.7667242 178.532771,37.9008005 L177.382608,35.3688193 C176.301162,35.923863 175.106926,36.2565185 173.889943,36.2565185 C172.313268,36.2565185 171.209074,35.6579239 170.735645,34.54691 L179.162588,34.54691 C179.252629,34.1252992 179.297176,33.7036885 179.297176,33.1931224 C179.297176,29.6409359 176.795916,27.265553 173.438787,27.265553 C170.059859,27.265553 167.581346,29.6627114 167.581346,33.2376001 C167.581346,36.8782786 170.037586,39.2096471 173.845396,39.2096471 L173.845396,39.2105737 L173.84587,39.2105737 Z M195.204678,39.2105737 C198.607302,39.2105737 201.129888,36.7911765 201.129888,33.2385267 C201.129888,29.6863401 198.606828,27.2664796 195.204205,27.2664796 C191.801581,27.2664796 189.278521,29.6863401 189.278521,33.2385267 C189.278521,36.7911765 191.802055,39.2105737 195.203731,39.2105737 L195.204678,39.2105737 Z M145.41169,38.9664101 L148.407705,38.9664101 L148.407705,22.4262953 L145.411216,22.4262953 L145.411216,38.9664101 L145.41169,38.9664101 Z M152.598429,25.933541 C153.657128,25.933541 154.46845,25.1338704 154.46845,24.0682608 C154.46845,23.0026512 153.658076,22.2034439 152.598903,22.2034439 C151.517456,22.2034439 150.706134,23.0026512 150.706134,24.0682608 C150.706134,25.1338704 151.51793,25.9330777 152.599377,25.9330777 L152.598429,25.933541 Z M101.119293,12.0004633 L99.4037645,27.8743404 L96.4774135,14.49121 L87.3026513,16.3879952 L90.2275806,29.770199 L77,32.5037193 L79.3363418,43.1936372 L102.597397,48 L107.916958,36.3839283 L110.448548,12.9544156 L101.118346,12 L101.119293,12.0009266 L101.119293,12.0004633 Z M93.7690578,35.0282876 C93.289468,35.455458 92.6553857,35.4160768 91.9824435,35.1983218 C91.3109229,34.9814934 91.012364,34.1915523 91.2668499,33.2366734 C91.4564111,32.5278114 92.3487705,32.4212504 92.7951871,32.4138375 C92.9648444,32.4110576 93.1316583,32.4444158 93.2856767,32.5120589 C93.6012961,32.6510515 94.1358587,32.9475689 94.2443825,33.399758 C94.4007705,34.0520965 94.2500693,34.5997272 93.7704795,35.0268976 L93.7695317,35.0268976 L93.7695317,35.0278243 L93.7690578,35.0282876 Z M100.503219,35.7649481 C100.154901,36.35335 99.240268,36.4311858 98.3403262,36.0030887 C97.7337303,35.7139842 97.7384694,34.9782502 97.8048158,34.5297676 C97.8403585,34.2851407 97.9408259,34.0548763 98.0986356,33.86075 C98.3152093,33.5938843 98.6767973,33.2459396 99.0947798,33.2352835 C99.7743567,33.2176778 100.359153,33.5141953 100.689463,34.0507065 C101.021195,34.5853646 100.855329,35.1751564 100.506063,35.7649481 L100.504167,35.7649481 L100.503219,35.7649481 Z" id="logo-horizontal"></path>
            </g>
        </g>
    </g>
</svg>