<?xml version="1.0" encoding="UTF-8"?>
<svg width="92px" height="16px" viewBox="0 0 92 16" version="1.1" xmlns="http://www.w3.org/2000/svg" xmlns:xlink="http://www.w3.org/1999/xlink">
    <!-- Generator: Sketch 44.1 (41455) - http://www.bohemiancoding.com/sketch -->
    <title>logo-wordmark</title>
    <desc>Created with Sketch.</desc>
    <defs></defs>
    <g id="FE-Engineering-Exercise" stroke="none" stroke-width="1" fill="none" fill-rule="evenodd">
        <g id="restaurant-list-mobile" transform="translate(-114.000000, -16.000000)" fill-rule="nonzero" fill="#2E3333">
            <g id="nav-bar">
                <path d="M122.786948,31.7703016 L125.745019,31.7703016 L125.254991,29.5352093 L125.254991,16.2100847 L122.425356,16.2100847 L122.425356,22.2877224 C121.574184,21.327086 120.403486,20.7635185 119.021113,20.7635185 C116.191031,20.7635185 114,23.0395816 114,26.3817592 C114,29.723501 116.191031,32 119.021113,32 C120.425414,32 121.637731,31.4150753 122.489351,30.4121605 L122.786948,31.7698657 L122.786948,31.7703016 Z M178.722686,23.7504699 C179.297295,23.7504699 179.828942,23.8960473 180.318076,24.2299164 L181.658829,21.2856793 C181.041259,20.9090959 180.318076,20.7425972 179.616373,20.7425972 C178.339614,20.7425972 177.275872,21.3048571 176.59565,22.3509221 L176.297157,20.9919093 L173.382048,20.9919093 L173.850148,23.1014738 L173.850148,31.7685581 L176.67844,31.7685581 L176.67844,24.8980904 C177.061512,24.1876379 177.785143,23.7495982 178.721344,23.7495982 L178.721344,23.7504699 L178.722239,23.7504699 L178.722686,23.7504699 Z M187.019606,29.0967338 C185.382598,29.0967338 184.168938,28.0319268 184.168938,26.3813234 C184.168938,24.7106704 185.382598,23.6667847 187.019606,23.6667847 C188.679885,23.6667847 189.871616,24.7106704 189.871616,26.3813234 C189.871616,28.0319268 188.679885,29.0967338 187.020053,29.0967338 L187.019606,29.0967338 Z M116.744159,26.3813234 C116.744159,24.7106704 117.956924,23.6667847 119.594827,23.6667847 C121.255106,23.6667847 122.44639,24.7106704 122.44639,26.3813234 C122.44639,28.0319268 121.255106,29.0967338 119.595722,29.0967338 C117.957819,29.0967338 116.744159,28.0319268 116.744159,26.3813234 Z M199.552251,29.0967338 C197.914347,29.0967338 196.701583,28.0319268 196.701583,26.3813234 C196.701583,24.7106704 197.914347,23.6667847 199.552251,23.6667847 C201.211635,23.6667847 202.402918,24.7106704 202.402918,26.3813234 C202.402918,28.0319268 201.211635,29.0967338 199.552251,29.0967338 Z M132.616605,23.4994143 C134.084453,23.4994143 135.042134,24.1675883 135.339731,25.3997657 L129.893479,25.3997657 C130.212557,24.1675883 131.169791,23.4994143 132.616158,23.4994143 L132.616605,23.4994143 Z M166.466605,23.4994143 C167.935348,23.4994143 168.893029,24.1675883 169.190626,25.3997657 L163.744374,25.3997657 C164.063452,24.1675883 165.020686,23.4994143 166.467053,23.4994143 L166.466605,23.4994143 Z M152.659439,31.7703016 L157.212452,31.7703016 L160.170523,20.9932169 L157.085358,20.9932169 L154.915807,29.723501 L152.745362,20.9932169 L149.702263,20.9932169 L152.660334,31.7698657 L152.659439,31.7703016 Z M145.361372,31.7703016 L148.189664,31.7703016 L148.189664,20.9927811 L145.361372,20.9927811 L145.361372,31.7703016 Z M133.050247,31.9699256 C134.625498,31.9699256 136.178373,31.5514996 137.476166,30.7373124 L136.39139,28.3566428 C135.369715,28.8788036 134.242425,29.1921872 133.093208,29.1921872 C131.604327,29.1921872 130.561618,28.6281838 130.114551,27.5838623 L138.07136,27.5838623 C138.156388,27.1872293 138.199797,26.7905963 138.199797,26.3098423 C138.199797,22.9681005 135.838262,20.7334441 132.667622,20.7334441 C129.476843,20.7334441 127.136342,22.9890218 127.136342,26.3516849 C127.136342,29.776676 129.455362,31.9699256 133.051142,31.9699256 L133.050247,31.9699256 Z M205.147973,26.3813234 C205.147973,23.0395816 202.764958,20.7630826 199.552251,20.7630826 C196.339096,20.7630826 193.956529,23.0395816 193.956529,26.3813234 C193.956529,29.723501 196.339096,31.9995641 199.551803,31.9995641 C202.764958,31.9995641 205.147525,29.723501 205.147525,26.3813234 L205.147973,26.3813234 Z M166.850573,31.9995641 C168.424034,31.9995641 169.977357,31.5820099 171.276492,30.7673867 L170.190374,28.3854096 C169.169146,28.9075704 168.041409,29.2205181 166.892192,29.2205181 C165.403311,29.2205181 164.360602,28.6573865 163.913535,27.6121932 L171.871238,27.6121932 C171.956266,27.2155602 171.998333,26.8189272 171.998333,26.3386091 C171.998333,22.9968673 169.636351,20.7622109 166.466158,20.7622109 C163.275379,20.7622109 160.934878,23.0173527 160.934878,26.3804517 C160.934878,29.8054428 163.254346,31.9986924 166.850125,31.9986924 L166.850125,31.9995641 L166.850573,31.9995641 Z M187.020053,31.9995641 C190.233208,31.9995641 192.615328,29.723501 192.615328,26.3813234 C192.615328,23.0395816 190.23276,20.7630826 187.019606,20.7630826 C183.806451,20.7630826 181.423884,23.0395816 181.423884,26.3813234 C181.423884,29.723501 183.806899,31.9995641 187.019158,31.9995641 L187.020053,31.9995641 Z M139.9997,31.7698657 L142.828887,31.7698657 L142.828887,16.2096489 L139.999253,16.2096489 L139.999253,31.7698657 L139.9997,31.7698657 Z M146.786258,19.5091122 C147.786006,19.5091122 148.552151,18.7568171 148.552151,17.7543382 C148.552151,16.7518592 147.786901,16 146.786706,16 C145.765477,16 144.999333,16.7518592 144.999333,17.7543382 C144.999333,18.7568171 145.765925,19.5086763 146.787153,19.5086763 L146.786258,19.5091122 Z" id="logo-wordmark"></path>
            </g>
        </g>
    </g>
</svg>