<?xml version="1.0" encoding="UTF-8"?>
<svg width="12px" height="16px" viewBox="0 0 12 16" version="1.1" xmlns="http://www.w3.org/2000/svg" xmlns:xlink="http://www.w3.org/1999/xlink">
    <!-- Generator: Sketch 44.1 (41455) - http://www.bohemiancoding.com/sketch -->
    <title>user-icon</title>
    <desc>Created with Sketch.</desc>
    <defs></defs>
    <g id="FE-Engineering-Exercise" stroke="none" stroke-width="1" fill="none" fill-rule="evenodd">
        <g id="restaurant-list-mobile" transform="translate(-18.000000, -16.000000)">
            <g id="nav-bar">
                <g id="user-icon" transform="translate(12.000000, 12.000000)">
                    <rect id="spacer" x="0" y="0" width="24" height="24"></rect>
                    <path d="M8.25,9.75 C8.25,7.68225 9.93225,6 12,6 C14.06775,6 15.75,7.68225 15.75,9.75 C15.75,11.81775 14.06775,13.5 12,13.5 C9.93225,13.5 8.25,11.81775 8.25,9.75 M14.796,14.1926875 C16.27,13.2630625 17.25,11.6214375 17.25,9.75 C17.25,6.8505 14.8995,4.5 12,4.5 C9.1005,4.5 6.75,6.8505 6.75,9.75 C6.75,11.6214375 7.73,13.2630625 9.204,14.1926875 C7.3003125,15.199625 6,17.2006875 6,19.5 L7.5,19.5 C7.5,17.0186875 9.5186875,15 12,15 C14.4813125,15 16.5,17.0186875 16.5,19.5 L18,19.5 C18,17.2006875 16.6996875,15.199625 14.796,14.1926875 M10.5,10.5 C10.9141875,10.5 11.25,10.1641875 11.25,9.75 C11.25,9.33575 10.9141875,9 10.5,9 C10.0858125,9 9.75,9.33575 9.75,9.75 C9.75,10.1641875 10.0858125,10.5 10.5,10.5 M13.5,10.5 C13.9141875,10.5 14.25,10.1641875 14.25,9.75 C14.25,9.33575 13.9141875,9 13.5,9 C13.0858125,9 12.75,9.33575 12.75,9.75 C12.75,10.1641875 13.0858125,10.5 13.5,10.5" fill="#00CCBC"></path>
                </g>
            </g>
        </g>
    </g>
</svg>